<?xml version="1.0" ?><svg height="512" viewBox="0 0 512 512" width="512" xmlns="http://www.w3.org/2000/svg"><defs><style>
      .cls-1 {
        fill: #fbae17;
      }

      .cls-2 {
        fill: none;
        stroke: #000;
        stroke-linecap: round;
        stroke-linejoin: round;
        stroke-width: 3px;
      }

      .cls-3 {
        fill: #fff;
      }
    </style></defs><title/><g data-name="Set v 2" id="Set_v_2"><g><circle class="cls-1" cx="256" cy="257.43" r="190.73"/><path class="cls-2" d="M404.74,344q-4.28,7.53-9.27,14.58"/><path class="cls-2" d="M426.5,270.47A170,170,0,0,1,410,334"/><path class="cls-2" d="M426.16,244.79q.66,7.5.66,15.17"/><path class="cls-2" d="M298.88,94.56q5.87,1.51,11.54,3.42"/><path class="cls-2" d="M198.27,99.12a172.11,172.11,0,0,1,94-6.13"/><path class="cls-2" d="M178.2,107.82q6.44-3.3,13.16-6"/><path class="cls-2" d="M87.2,286.56q-1.24-8.06-1.75-16.34"/><path class="cls-2" d="M123.13,367.38a170.18,170.18,0,0,1-34.36-72.27"/><path class="cls-2" d="M136.74,382.3q-4-3.87-7.69-8"/><circle class="cls-2" cx="256" cy="257.43" r="190.73"/><g><g><path class="cls-3" d="M304.43,128.43H207.57a80.78,80.78,0,0,0-80.78,80.78v96.45a80.78,80.78,0,0,0,80.78,80.78h96.86a80.78,80.78,0,0,0,80.78-80.78V209.21A80.78,80.78,0,0,0,304.43,128.43Zm57.23,173.64a60.86,60.86,0,0,1-60.86,60.86H211.2a60.86,60.86,0,0,1-60.86-60.86V212.8a60.86,60.86,0,0,1,60.86-60.86h89.6a60.86,60.86,0,0,1,60.86,60.86Z"/><path class="cls-1" d="M300.8,151.94H211.2a60.86,60.86,0,0,0-60.86,60.86v89.27a60.86,60.86,0,0,0,60.86,60.86h89.6a60.86,60.86,0,0,0,60.86-60.86V212.8A60.86,60.86,0,0,0,300.8,151.94ZM256,324.86a67.43,67.43,0,1,1,67.42-67.43A67.42,67.42,0,0,1,256,324.86ZM323.42,207a15.92,15.92,0,1,1,15.91-15.91A15.92,15.92,0,0,1,323.42,207Z"/><path class="cls-3" d="M256,190a67.43,67.43,0,1,0,67.42,67.42A67.42,67.42,0,0,0,256,190Zm0,109.06a41.64,41.64,0,1,1,41.64-41.64A41.64,41.64,0,0,1,256,299.07Z"/><circle class="cls-1" cx="256" cy="257.43" r="41.64"/><path class="cls-3" d="M339.33,191.09a15.91,15.91,0,1,1-15.91-15.92A15.91,15.91,0,0,1,339.33,191.09Z"/></g><g><path class="cls-2" d="M304.43,128.43H207.57a80.78,80.78,0,0,0-80.78,80.78v96.45a80.78,80.78,0,0,0,80.78,80.78h96.86a80.78,80.78,0,0,0,80.78-80.78V209.21A80.78,80.78,0,0,0,304.43,128.43Zm57.23,173.64a60.86,60.86,0,0,1-60.86,60.86H211.2a60.86,60.86,0,0,1-60.86-60.86V212.8a60.86,60.86,0,0,1,60.86-60.86h89.6a60.86,60.86,0,0,1,60.86,60.86Z"/><path class="cls-2" d="M300.8,151.94H211.2a60.86,60.86,0,0,0-60.86,60.86v89.27a60.86,60.86,0,0,0,60.86,60.86h89.6a60.86,60.86,0,0,0,60.86-60.86V212.8A60.86,60.86,0,0,0,300.8,151.94ZM256,324.86a67.43,67.43,0,1,1,67.42-67.43A67.42,67.42,0,0,1,256,324.86ZM323.42,207a15.92,15.92,0,1,1,15.91-15.91A15.92,15.92,0,0,1,323.42,207Z"/><path class="cls-2" d="M256,190a67.43,67.43,0,1,0,67.42,67.42A67.42,67.42,0,0,0,256,190Zm0,109.06a41.64,41.64,0,1,1,41.64-41.64A41.64,41.64,0,0,1,256,299.07Z"/><circle class="cls-2" cx="256" cy="257.43" r="41.64"/><path class="cls-2" d="M339.33,191.09a15.91,15.91,0,1,1-15.91-15.92A15.91,15.91,0,0,1,339.33,191.09Z"/></g></g></g></g></svg>