<?xml version="1.0" ?><svg height="512" viewBox="0 0 512 512" width="512" xmlns="http://www.w3.org/2000/svg"><defs><style>
      .cls-1 {
        fill: #fbae17;
      }

      .cls-2 {
        fill: none;
        stroke: #000;
        stroke-linecap: round;
        stroke-linejoin: round;
        stroke-width: 3px;
      }

      .cls-3 {
        fill: #fff;
      }
    </style></defs><title/><g data-name="Set v 2" id="Set_v_2"><g><circle class="cls-1" cx="256" cy="256" r="190.44"/><g><path class="cls-2" d="M99.15,324q-1.53-3.5-2.89-7.08"/><path class="cls-2" d="M147.79,388.31a171.67,171.67,0,0,1-43-52.53"/><path class="cls-2" d="M165.09,400.77q-3.9-2.46-7.66-5.11"/><path class="cls-2" d="M374.42,379.26q-5.46,5.24-11.37,10"/><path class="cls-2" d="M417.91,310.91a170.78,170.78,0,0,1-37.39,62.18"/><path class="cls-2" d="M421.09,300.42c-.35,1.33-.72,2.65-1.11,4"/><path class="cls-2" d="M394.61,156q3.06,4.24,5.86,8.66"/><path class="cls-2" d="M92.79,205.08c.39-1.26.8-2.51,1.22-3.76"/><path class="cls-2" d="M87.81,225.4q.87-4.82,2-9.54"/><path class="cls-2" d="M93,307.57A170.94,170.94,0,0,1,85.08,256a172.7,172.7,0,0,1,.86-17.26"/></g><path class="cls-3" d="M257.93,446.4c23-.45,46-4.2,69.09-13.64V275.61h59l10.09-70.23H327v-47c0-14.75,6.55-28.21,23.81-28.21h48.39V74.63c-33-4.93-141.32-22.41-139.48,70.3v60.45H199.18v70.75h58.75Z"/><path class="cls-2" d="M327,432.76V275.61h59l10.09-70.23H327v-47c0-14.75,6.55-28.21,23.81-28.21h48.39V74.63C351.89,69.44,259,53.55,259.74,144.93v60.45H199.18v70.75h58.75V446.4"/><path class="cls-2" d="M399,130.18A189.71,189.71,0,0,1,446.44,256c0,105.18-85.26,190.44-190.44,190.44S65.56,361.18,65.56,256,150.82,65.56,256,65.56a190.15,190.15,0,0,1,54.52,7.92"/></g></g></svg>